<mxfile host="app.diagrams.net" modified="2022-09-26T14:58:15.872Z" agent="5.0 (Windows NT 10.0; Win64; x64) AppleWebKit/537.36 (KHTML, like Gecko) Chrome/105.0.0.0 Safari/537.36" etag="IWjY2_oZ-D3H7mnD9ck5" version="20.3.6" type="github">
  <diagram id="n9HFfjMK9hOBVCEkppL0" name="Page-1">
    <mxGraphModel dx="868" dy="474" grid="1" gridSize="10" guides="1" tooltips="1" connect="1" arrows="1" fold="1" page="1" pageScale="1" pageWidth="827" pageHeight="1169" math="0" shadow="0">
      <root>
        <mxCell id="0" />
        <mxCell id="1" parent="0" />
        <object label="Admin&amp;nbsp;" id="HZhEUxBDqLnAfJDDO1io-1">
          <mxCell style="shape=umlActor;html=1;verticalLabelPosition=bottom;verticalAlign=top;align=center;" parent="1" vertex="1">
            <mxGeometry x="20" y="340" width="40" height="70" as="geometry" />
          </mxCell>
        </object>
        <mxCell id="HZhEUxBDqLnAfJDDO1io-3" value="Customer" style="shape=umlActor;html=1;verticalLabelPosition=bottom;verticalAlign=top;align=center;" parent="1" vertex="1">
          <mxGeometry x="730" y="340" width="40" height="70" as="geometry" />
        </mxCell>
        <object placeholders="1" c4Name="E-Commerce System" c4Type="SystemScopeBoundary" c4Application="Software System" label="&lt;font style=&quot;font-size: 16px&quot;&gt;&lt;b&gt;&lt;div style=&quot;text-align: left&quot;&gt;%c4Name%&lt;/div&gt;&lt;/b&gt;&lt;/font&gt;&lt;div style=&quot;text-align: left&quot;&gt;[%c4Application%]&lt;/div&gt;" id="HZhEUxBDqLnAfJDDO1io-4">
          <mxCell style="rounded=1;fontSize=11;whiteSpace=wrap;html=1;dashed=1;arcSize=20;fillColor=none;strokeColor=#666666;fontColor=#333333;labelBackgroundColor=none;align=left;verticalAlign=bottom;labelBorderColor=none;spacingTop=0;spacing=10;dashPattern=8 4;metaEdit=1;rotatable=0;perimeter=rectanglePerimeter;noLabel=0;labelPadding=0;allowArrows=0;connectable=0;expand=0;recursiveResize=0;editable=1;pointerEvents=0;absoluteArcSize=1;points=[[0.25,0,0],[0.5,0,0],[0.75,0,0],[1,0.25,0],[1,0.5,0],[1,0.75,0],[0.75,1,0],[0.5,1,0],[0.25,1,0],[0,0.75,0],[0,0.5,0],[0,0.25,0]];" parent="1" vertex="1">
            <mxGeometry x="180" y="45" width="450" height="860" as="geometry" />
          </mxCell>
        </object>
        <mxCell id="HZhEUxBDqLnAfJDDO1io-10" value="Account Control Panel" style="ellipse;whiteSpace=wrap;html=1;" parent="1" vertex="1">
          <mxGeometry x="240" y="230" width="140" height="40" as="geometry" />
        </mxCell>
        <mxCell id="HZhEUxBDqLnAfJDDO1io-12" value="Personal Information" style="ellipse;whiteSpace=wrap;html=1;" parent="1" vertex="1">
          <mxGeometry x="240" y="280" width="140" height="30" as="geometry" />
        </mxCell>
        <mxCell id="HZhEUxBDqLnAfJDDO1io-13" value="Add Subcategory" style="ellipse;whiteSpace=wrap;html=1;" parent="1" vertex="1">
          <mxGeometry x="240" y="320" width="140" height="30" as="geometry" />
        </mxCell>
        <mxCell id="HZhEUxBDqLnAfJDDO1io-14" value="Add Brand" style="ellipse;whiteSpace=wrap;html=1;" parent="1" vertex="1">
          <mxGeometry x="240" y="360" width="140" height="30" as="geometry" />
        </mxCell>
        <mxCell id="HZhEUxBDqLnAfJDDO1io-15" value="All Customers&amp;nbsp;" style="ellipse;whiteSpace=wrap;html=1;" parent="1" vertex="1">
          <mxGeometry x="240" y="400" width="140" height="30" as="geometry" />
        </mxCell>
        <mxCell id="HZhEUxBDqLnAfJDDO1io-16" value="All Sellers" style="ellipse;whiteSpace=wrap;html=1;" parent="1" vertex="1">
          <mxGeometry x="240" y="440" width="140" height="30" as="geometry" />
        </mxCell>
        <mxCell id="HZhEUxBDqLnAfJDDO1io-17" value="All Products" style="ellipse;whiteSpace=wrap;html=1;" parent="1" vertex="1">
          <mxGeometry x="240" y="480" width="140" height="30" as="geometry" />
        </mxCell>
        <mxCell id="HZhEUxBDqLnAfJDDO1io-18" value="Block Customers" style="ellipse;whiteSpace=wrap;html=1;" parent="1" vertex="1">
          <mxGeometry x="240" y="520" width="140" height="30" as="geometry" />
        </mxCell>
        <mxCell id="HZhEUxBDqLnAfJDDO1io-19" value="Block Products" style="ellipse;whiteSpace=wrap;html=1;" parent="1" vertex="1">
          <mxGeometry x="240" y="610" width="140" height="30" as="geometry" />
        </mxCell>
        <mxCell id="HZhEUxBDqLnAfJDDO1io-20" value="Block Sellers" style="ellipse;whiteSpace=wrap;html=1;" parent="1" vertex="1">
          <mxGeometry x="240" y="560" width="140" height="30" as="geometry" />
        </mxCell>
        <mxCell id="HZhEUxBDqLnAfJDDO1io-21" value="Product Request" style="ellipse;whiteSpace=wrap;html=1;" parent="1" vertex="1">
          <mxGeometry x="240" y="650" width="140" height="30" as="geometry" />
        </mxCell>
        <mxCell id="HZhEUxBDqLnAfJDDO1io-22" value="Customer Request" style="ellipse;whiteSpace=wrap;html=1;" parent="1" vertex="1">
          <mxGeometry x="240" y="700" width="140" height="30" as="geometry" />
        </mxCell>
        <mxCell id="HZhEUxBDqLnAfJDDO1io-23" value="Customer View" style="ellipse;whiteSpace=wrap;html=1;" parent="1" vertex="1">
          <mxGeometry x="240" y="740" width="140" height="30" as="geometry" />
        </mxCell>
        <mxCell id="HZhEUxBDqLnAfJDDO1io-24" value="Account Newsletter and other" style="ellipse;whiteSpace=wrap;html=1;" parent="1" vertex="1">
          <mxGeometry x="240" y="780" width="150" height="50" as="geometry" />
        </mxCell>
        <mxCell id="HZhEUxBDqLnAfJDDO1io-25" value="Registration" style="ellipse;whiteSpace=wrap;html=1;" parent="1" vertex="1">
          <mxGeometry x="420" y="160" width="140" height="30" as="geometry" />
        </mxCell>
        <mxCell id="HZhEUxBDqLnAfJDDO1io-26" value="Log in" style="ellipse;whiteSpace=wrap;html=1;" parent="1" vertex="1">
          <mxGeometry x="240" y="180" width="140" height="30" as="geometry" />
        </mxCell>
        <mxCell id="HZhEUxBDqLnAfJDDO1io-27" value="Log out" style="ellipse;whiteSpace=wrap;html=1;" parent="1" vertex="1">
          <mxGeometry x="200" y="90" width="140" height="30" as="geometry" />
        </mxCell>
        <mxCell id="HZhEUxBDqLnAfJDDO1io-31" value="" style="edgeStyle=none;html=1;endArrow=none;verticalAlign=bottom;rounded=0;entryX=0;entryY=0.5;entryDx=0;entryDy=0;" parent="1" target="HZhEUxBDqLnAfJDDO1io-26" edge="1">
          <mxGeometry width="160" relative="1" as="geometry">
            <mxPoint x="60" y="330" as="sourcePoint" />
            <mxPoint x="220" y="330" as="targetPoint" />
          </mxGeometry>
        </mxCell>
        <mxCell id="HZhEUxBDqLnAfJDDO1io-33" value="" style="edgeStyle=none;html=1;endArrow=none;verticalAlign=bottom;rounded=0;entryX=0;entryY=0.5;entryDx=0;entryDy=0;" parent="1" target="HZhEUxBDqLnAfJDDO1io-10" edge="1">
          <mxGeometry width="160" relative="1" as="geometry">
            <mxPoint x="70" y="340" as="sourcePoint" />
            <mxPoint x="170" y="220" as="targetPoint" />
          </mxGeometry>
        </mxCell>
        <mxCell id="HZhEUxBDqLnAfJDDO1io-34" value="" style="edgeStyle=none;html=1;endArrow=none;verticalAlign=bottom;rounded=0;entryX=0.045;entryY=0.713;entryDx=0;entryDy=0;entryPerimeter=0;" parent="1" target="HZhEUxBDqLnAfJDDO1io-12" edge="1">
          <mxGeometry width="160" relative="1" as="geometry">
            <mxPoint x="70" y="350" as="sourcePoint" />
            <mxPoint x="170.0000000000001" y="260" as="targetPoint" />
          </mxGeometry>
        </mxCell>
        <mxCell id="HZhEUxBDqLnAfJDDO1io-35" value="" style="edgeStyle=none;html=1;endArrow=none;verticalAlign=bottom;rounded=0;entryX=0;entryY=0.5;entryDx=0;entryDy=0;" parent="1" target="HZhEUxBDqLnAfJDDO1io-13" edge="1">
          <mxGeometry width="160" relative="1" as="geometry">
            <mxPoint x="80" y="355" as="sourcePoint" />
            <mxPoint x="160" y="300" as="targetPoint" />
          </mxGeometry>
        </mxCell>
        <mxCell id="HZhEUxBDqLnAfJDDO1io-36" value="" style="edgeStyle=none;html=1;endArrow=none;verticalAlign=bottom;rounded=0;entryX=0;entryY=0.5;entryDx=0;entryDy=0;" parent="1" target="HZhEUxBDqLnAfJDDO1io-14" edge="1">
          <mxGeometry width="160" relative="1" as="geometry">
            <mxPoint x="80" y="360" as="sourcePoint" />
            <mxPoint x="180" y="390" as="targetPoint" />
          </mxGeometry>
        </mxCell>
        <mxCell id="HZhEUxBDqLnAfJDDO1io-37" value="" style="edgeStyle=none;html=1;endArrow=none;verticalAlign=bottom;rounded=0;entryX=0;entryY=0.5;entryDx=0;entryDy=0;" parent="1" target="HZhEUxBDqLnAfJDDO1io-15" edge="1">
          <mxGeometry width="160" relative="1" as="geometry">
            <mxPoint x="80" y="370" as="sourcePoint" />
            <mxPoint x="160" y="370" as="targetPoint" />
          </mxGeometry>
        </mxCell>
        <mxCell id="HZhEUxBDqLnAfJDDO1io-38" value="" style="edgeStyle=none;html=1;endArrow=none;verticalAlign=bottom;rounded=0;entryX=0;entryY=0.5;entryDx=0;entryDy=0;" parent="1" target="HZhEUxBDqLnAfJDDO1io-16" edge="1">
          <mxGeometry width="160" relative="1" as="geometry">
            <mxPoint x="80" y="380" as="sourcePoint" />
            <mxPoint x="180" y="470" as="targetPoint" />
          </mxGeometry>
        </mxCell>
        <mxCell id="HZhEUxBDqLnAfJDDO1io-39" value="" style="edgeStyle=none;html=1;endArrow=none;verticalAlign=bottom;rounded=0;entryX=0.045;entryY=0.268;entryDx=0;entryDy=0;entryPerimeter=0;" parent="1" target="HZhEUxBDqLnAfJDDO1io-17" edge="1">
          <mxGeometry width="160" relative="1" as="geometry">
            <mxPoint x="80" y="390" as="sourcePoint" />
            <mxPoint x="170.0000000000001" y="455" as="targetPoint" />
          </mxGeometry>
        </mxCell>
        <mxCell id="HZhEUxBDqLnAfJDDO1io-40" value="" style="edgeStyle=none;html=1;endArrow=none;verticalAlign=bottom;rounded=0;entryX=0.071;entryY=0.333;entryDx=0;entryDy=0;entryPerimeter=0;" parent="1" target="HZhEUxBDqLnAfJDDO1io-18" edge="1">
          <mxGeometry width="160" relative="1" as="geometry">
            <mxPoint x="80" y="400" as="sourcePoint" />
            <mxPoint x="160" y="490" as="targetPoint" />
          </mxGeometry>
        </mxCell>
        <mxCell id="HZhEUxBDqLnAfJDDO1io-41" value="" style="edgeStyle=none;html=1;endArrow=none;verticalAlign=bottom;rounded=0;exitX=0;exitY=0.5;exitDx=0;exitDy=0;" parent="1" source="HZhEUxBDqLnAfJDDO1io-20" edge="1">
          <mxGeometry width="160" relative="1" as="geometry">
            <mxPoint x="160" y="540" as="sourcePoint" />
            <mxPoint x="80" y="410" as="targetPoint" />
          </mxGeometry>
        </mxCell>
        <mxCell id="HZhEUxBDqLnAfJDDO1io-42" value="" style="edgeStyle=none;html=1;endArrow=none;verticalAlign=bottom;rounded=0;entryX=0.052;entryY=0.237;entryDx=0;entryDy=0;entryPerimeter=0;" parent="1" target="HZhEUxBDqLnAfJDDO1io-19" edge="1">
          <mxGeometry width="160" relative="1" as="geometry">
            <mxPoint x="80" y="410" as="sourcePoint" />
            <mxPoint x="170.0000000000001" y="345" as="targetPoint" />
          </mxGeometry>
        </mxCell>
        <mxCell id="HZhEUxBDqLnAfJDDO1io-43" value="" style="edgeStyle=none;html=1;endArrow=none;verticalAlign=bottom;rounded=0;entryX=0;entryY=0.5;entryDx=0;entryDy=0;" parent="1" target="HZhEUxBDqLnAfJDDO1io-21" edge="1">
          <mxGeometry width="160" relative="1" as="geometry">
            <mxPoint x="70" y="420" as="sourcePoint" />
            <mxPoint x="190" y="670" as="targetPoint" />
          </mxGeometry>
        </mxCell>
        <mxCell id="HZhEUxBDqLnAfJDDO1io-44" value="" style="edgeStyle=none;html=1;endArrow=none;verticalAlign=bottom;rounded=0;exitX=0.059;exitY=0.268;exitDx=0;exitDy=0;exitPerimeter=0;" parent="1" source="HZhEUxBDqLnAfJDDO1io-22" edge="1">
          <mxGeometry width="160" relative="1" as="geometry">
            <mxPoint x="160" y="640" as="sourcePoint" />
            <mxPoint x="70" y="420" as="targetPoint" />
          </mxGeometry>
        </mxCell>
        <mxCell id="HZhEUxBDqLnAfJDDO1io-45" value="" style="edgeStyle=none;html=1;endArrow=none;verticalAlign=bottom;rounded=0;entryX=0;entryY=0.5;entryDx=0;entryDy=0;" parent="1" target="HZhEUxBDqLnAfJDDO1io-23" edge="1">
          <mxGeometry width="160" relative="1" as="geometry">
            <mxPoint x="70" y="430" as="sourcePoint" />
            <mxPoint x="160" y="680" as="targetPoint" />
          </mxGeometry>
        </mxCell>
        <mxCell id="HZhEUxBDqLnAfJDDO1io-46" value="" style="edgeStyle=none;html=1;endArrow=none;verticalAlign=bottom;rounded=0;entryX=0.036;entryY=0.285;entryDx=0;entryDy=0;entryPerimeter=0;" parent="1" target="HZhEUxBDqLnAfJDDO1io-24" edge="1">
          <mxGeometry width="160" relative="1" as="geometry">
            <mxPoint x="60" y="430" as="sourcePoint" />
            <mxPoint x="140" y="710" as="targetPoint" />
          </mxGeometry>
        </mxCell>
        <mxCell id="HZhEUxBDqLnAfJDDO1io-47" value="" style="edgeStyle=none;html=1;endArrow=none;verticalAlign=bottom;rounded=0;exitX=1;exitY=0.5;exitDx=0;exitDy=0;" parent="1" source="HZhEUxBDqLnAfJDDO1io-25" edge="1">
          <mxGeometry width="160" relative="1" as="geometry">
            <mxPoint x="300" y="120" as="sourcePoint" />
            <mxPoint x="720" y="360" as="targetPoint" />
          </mxGeometry>
        </mxCell>
        <mxCell id="HZhEUxBDqLnAfJDDO1io-48" value="" style="edgeStyle=none;html=1;endArrow=none;verticalAlign=bottom;rounded=0;exitX=1;exitY=0.5;exitDx=0;exitDy=0;" parent="1" source="HZhEUxBDqLnAfJDDO1io-26" edge="1">
          <mxGeometry width="160" relative="1" as="geometry">
            <mxPoint x="370" y="140" as="sourcePoint" />
            <mxPoint x="720" y="370" as="targetPoint" />
          </mxGeometry>
        </mxCell>
        <mxCell id="HZhEUxBDqLnAfJDDO1io-50" value="" style="edgeStyle=none;html=1;endArrow=none;verticalAlign=bottom;rounded=0;exitX=1;exitY=0.5;exitDx=0;exitDy=0;" parent="1" source="HZhEUxBDqLnAfJDDO1io-10" edge="1">
          <mxGeometry width="160" relative="1" as="geometry">
            <mxPoint x="320" y="320" as="sourcePoint" />
            <mxPoint x="720" y="390" as="targetPoint" />
            <Array as="points" />
          </mxGeometry>
        </mxCell>
        <mxCell id="HZhEUxBDqLnAfJDDO1io-51" value="" style="edgeStyle=none;html=1;endArrow=none;verticalAlign=bottom;rounded=0;exitX=1;exitY=0.5;exitDx=0;exitDy=0;" parent="1" source="HZhEUxBDqLnAfJDDO1io-12" edge="1">
          <mxGeometry width="160" relative="1" as="geometry">
            <mxPoint x="400" y="280" as="sourcePoint" />
            <mxPoint x="720" y="400" as="targetPoint" />
            <Array as="points" />
          </mxGeometry>
        </mxCell>
        <mxCell id="HZhEUxBDqLnAfJDDO1io-53" value="My all Orders" style="ellipse;whiteSpace=wrap;html=1;" parent="1" vertex="1">
          <mxGeometry x="420" y="80" width="140" height="30" as="geometry" />
        </mxCell>
        <mxCell id="HZhEUxBDqLnAfJDDO1io-54" value="My carts products" style="ellipse;whiteSpace=wrap;html=1;" parent="1" vertex="1">
          <mxGeometry x="420" y="120" width="140" height="30" as="geometry" />
        </mxCell>
        <mxCell id="HZhEUxBDqLnAfJDDO1io-56" value="" style="edgeStyle=none;html=1;endArrow=none;verticalAlign=bottom;rounded=0;exitX=1;exitY=0.5;exitDx=0;exitDy=0;" parent="1" source="HZhEUxBDqLnAfJDDO1io-53" edge="1">
          <mxGeometry width="160" relative="1" as="geometry">
            <mxPoint x="550" y="270" as="sourcePoint" />
            <mxPoint x="730" y="330" as="targetPoint" />
          </mxGeometry>
        </mxCell>
        <mxCell id="HZhEUxBDqLnAfJDDO1io-57" value="" style="edgeStyle=none;html=1;endArrow=none;verticalAlign=bottom;rounded=0;exitX=1;exitY=0.5;exitDx=0;exitDy=0;" parent="1" source="HZhEUxBDqLnAfJDDO1io-54" edge="1">
          <mxGeometry width="160" relative="1" as="geometry">
            <mxPoint x="590" y="320" as="sourcePoint" />
            <mxPoint x="720" y="340" as="targetPoint" />
          </mxGeometry>
        </mxCell>
        <mxCell id="HZhEUxBDqLnAfJDDO1io-62" value="Seller" style="shape=umlActor;html=1;verticalLabelPosition=bottom;verticalAlign=top;align=center;" parent="1" vertex="1">
          <mxGeometry x="720" y="580" width="40" height="70" as="geometry" />
        </mxCell>
        <mxCell id="HZhEUxBDqLnAfJDDO1io-64" value="" style="edgeStyle=none;html=1;endArrow=none;verticalAlign=bottom;rounded=0;exitX=1;exitY=1;exitDx=0;exitDy=0;" parent="1" source="HZhEUxBDqLnAfJDDO1io-25" edge="1">
          <mxGeometry width="160" relative="1" as="geometry">
            <mxPoint x="310" y="140" as="sourcePoint" />
            <mxPoint x="700" y="600" as="targetPoint" />
            <Array as="points">
              <mxPoint x="700" y="600" />
            </Array>
          </mxGeometry>
        </mxCell>
        <mxCell id="HZhEUxBDqLnAfJDDO1io-65" value="" style="edgeStyle=none;html=1;endArrow=none;verticalAlign=bottom;rounded=0;exitX=0.929;exitY=0.667;exitDx=0;exitDy=0;exitPerimeter=0;" parent="1" source="HZhEUxBDqLnAfJDDO1io-26" edge="1">
          <mxGeometry width="160" relative="1" as="geometry">
            <mxPoint x="310" y="180" as="sourcePoint" />
            <mxPoint x="700" y="610" as="targetPoint" />
            <Array as="points" />
          </mxGeometry>
        </mxCell>
        <mxCell id="HZhEUxBDqLnAfJDDO1io-67" value="&amp;lt;&amp;lt;include&amp;gt;&amp;gt;" style="edgeStyle=none;html=1;endArrow=open;verticalAlign=bottom;dashed=1;labelBackgroundColor=none;rounded=0;" parent="1" target="HZhEUxBDqLnAfJDDO1io-26" edge="1">
          <mxGeometry width="160" relative="1" as="geometry">
            <mxPoint x="270" y="120" as="sourcePoint" />
            <mxPoint x="520" y="310" as="targetPoint" />
          </mxGeometry>
        </mxCell>
        <mxCell id="HZhEUxBDqLnAfJDDO1io-68" value="Add Products" style="ellipse;whiteSpace=wrap;html=1;" parent="1" vertex="1">
          <mxGeometry x="450" y="490" width="140" height="30" as="geometry" />
        </mxCell>
        <mxCell id="HZhEUxBDqLnAfJDDO1io-69" value="" style="edgeStyle=none;html=1;endArrow=none;verticalAlign=bottom;rounded=0;exitX=1;exitY=1;exitDx=0;exitDy=0;" parent="1" source="HZhEUxBDqLnAfJDDO1io-68" edge="1">
          <mxGeometry width="160" relative="1" as="geometry">
            <mxPoint x="500" y="570" as="sourcePoint" />
            <mxPoint x="700" y="620" as="targetPoint" />
          </mxGeometry>
        </mxCell>
        <mxCell id="HZhEUxBDqLnAfJDDO1io-70" value="" style="edgeStyle=none;html=1;endArrow=none;verticalAlign=bottom;rounded=0;exitX=1;exitY=0.5;exitDx=0;exitDy=0;" parent="1" source="HZhEUxBDqLnAfJDDO1io-23" edge="1">
          <mxGeometry width="160" relative="1" as="geometry">
            <mxPoint x="400" y="710" as="sourcePoint" />
            <mxPoint x="700" y="630" as="targetPoint" />
          </mxGeometry>
        </mxCell>
        <mxCell id="HZhEUxBDqLnAfJDDO1io-71" value="" style="edgeStyle=none;html=1;endArrow=none;verticalAlign=bottom;rounded=0;exitX=1;exitY=0.5;exitDx=0;exitDy=0;" parent="1" source="HZhEUxBDqLnAfJDDO1io-24" edge="1">
          <mxGeometry width="160" relative="1" as="geometry">
            <mxPoint x="390" y="760" as="sourcePoint" />
            <mxPoint x="700" y="640" as="targetPoint" />
          </mxGeometry>
        </mxCell>
      </root>
    </mxGraphModel>
  </diagram>
</mxfile>
